<mxfile host="Electron" modified="2023-09-15T01:25:36.668Z" agent="Mozilla/5.0 (X11; Linux x86_64) AppleWebKit/537.36 (KHTML, like Gecko) draw.io/21.6.8 Chrome/114.0.5735.289 Electron/25.5.0 Safari/537.36" etag="_uCZAVCI4WFJfHBbemYJ" version="21.6.8" type="device">
  <diagram name="Page-1" id="MfOTqhVsFGxLaOrH2Mk2">
    <mxGraphModel dx="2950" dy="1198" grid="1" gridSize="10" guides="1" tooltips="1" connect="1" arrows="1" fold="1" page="1" pageScale="1" pageWidth="1600" pageHeight="900" math="0" shadow="0">
      <root>
        <mxCell id="0" />
        <mxCell id="1" parent="0" />
        <mxCell id="MEQ9TWRvzjw0mrX6-UN0-3" style="edgeStyle=orthogonalEdgeStyle;rounded=0;orthogonalLoop=1;jettySize=auto;html=1;exitX=1;exitY=0.5;exitDx=0;exitDy=0;entryX=0;entryY=0.5;entryDx=0;entryDy=0;" edge="1" parent="1" source="MEQ9TWRvzjw0mrX6-UN0-1" target="MEQ9TWRvzjw0mrX6-UN0-2">
          <mxGeometry relative="1" as="geometry" />
        </mxCell>
        <mxCell id="MEQ9TWRvzjw0mrX6-UN0-27" style="edgeStyle=orthogonalEdgeStyle;rounded=0;orthogonalLoop=1;jettySize=auto;html=1;exitX=0.5;exitY=1;exitDx=0;exitDy=0;entryX=0.5;entryY=0;entryDx=0;entryDy=0;" edge="1" parent="1" source="MEQ9TWRvzjw0mrX6-UN0-1" target="MEQ9TWRvzjw0mrX6-UN0-26">
          <mxGeometry relative="1" as="geometry" />
        </mxCell>
        <mxCell id="MEQ9TWRvzjw0mrX6-UN0-60" style="edgeStyle=orthogonalEdgeStyle;rounded=0;orthogonalLoop=1;jettySize=auto;html=1;exitX=0.5;exitY=0;exitDx=0;exitDy=0;entryX=0;entryY=0.5;entryDx=0;entryDy=0;" edge="1" parent="1" source="MEQ9TWRvzjw0mrX6-UN0-1" target="MEQ9TWRvzjw0mrX6-UN0-59">
          <mxGeometry relative="1" as="geometry" />
        </mxCell>
        <mxCell id="MEQ9TWRvzjw0mrX6-UN0-1" value="ProfilerModule" style="rounded=0;whiteSpace=wrap;html=1;" vertex="1" parent="1">
          <mxGeometry x="190" y="120" width="120" height="60" as="geometry" />
        </mxCell>
        <mxCell id="MEQ9TWRvzjw0mrX6-UN0-7" style="edgeStyle=orthogonalEdgeStyle;rounded=0;orthogonalLoop=1;jettySize=auto;html=1;exitX=1;exitY=0.5;exitDx=0;exitDy=0;entryX=0;entryY=0.5;entryDx=0;entryDy=0;" edge="1" parent="1" source="MEQ9TWRvzjw0mrX6-UN0-2" target="MEQ9TWRvzjw0mrX6-UN0-6">
          <mxGeometry relative="1" as="geometry" />
        </mxCell>
        <mxCell id="MEQ9TWRvzjw0mrX6-UN0-2" value="Planner Model Profile" style="ellipse;whiteSpace=wrap;html=1;" vertex="1" parent="1">
          <mxGeometry x="400" y="110" width="120" height="80" as="geometry" />
        </mxCell>
        <mxCell id="MEQ9TWRvzjw0mrX6-UN0-71" style="edgeStyle=orthogonalEdgeStyle;rounded=0;orthogonalLoop=1;jettySize=auto;html=1;exitX=1;exitY=0.5;exitDx=0;exitDy=0;entryX=0;entryY=0.5;entryDx=0;entryDy=0;" edge="1" parent="1" source="MEQ9TWRvzjw0mrX6-UN0-4" target="MEQ9TWRvzjw0mrX6-UN0-70">
          <mxGeometry relative="1" as="geometry" />
        </mxCell>
        <mxCell id="MEQ9TWRvzjw0mrX6-UN0-4" value="MemoryModule" style="rounded=0;whiteSpace=wrap;html=1;" vertex="1" parent="1">
          <mxGeometry x="1000" y="350" width="120" height="60" as="geometry" />
        </mxCell>
        <mxCell id="MEQ9TWRvzjw0mrX6-UN0-51" style="edgeStyle=orthogonalEdgeStyle;rounded=0;orthogonalLoop=1;jettySize=auto;html=1;exitX=0;exitY=0.5;exitDx=0;exitDy=0;entryX=0.5;entryY=0;entryDx=0;entryDy=0;" edge="1" parent="1" source="MEQ9TWRvzjw0mrX6-UN0-5" target="MEQ9TWRvzjw0mrX6-UN0-50">
          <mxGeometry relative="1" as="geometry" />
        </mxCell>
        <mxCell id="MEQ9TWRvzjw0mrX6-UN0-5" value="ActionModule" style="rounded=0;whiteSpace=wrap;html=1;" vertex="1" parent="1">
          <mxGeometry x="1440" y="270" width="120" height="60" as="geometry" />
        </mxCell>
        <mxCell id="MEQ9TWRvzjw0mrX6-UN0-31" style="edgeStyle=orthogonalEdgeStyle;rounded=0;orthogonalLoop=1;jettySize=auto;html=1;exitX=1;exitY=0.5;exitDx=0;exitDy=0;entryX=0;entryY=0.5;entryDx=0;entryDy=0;" edge="1" parent="1" source="MEQ9TWRvzjw0mrX6-UN0-6" target="MEQ9TWRvzjw0mrX6-UN0-30">
          <mxGeometry relative="1" as="geometry" />
        </mxCell>
        <mxCell id="MEQ9TWRvzjw0mrX6-UN0-56" style="edgeStyle=orthogonalEdgeStyle;rounded=0;orthogonalLoop=1;jettySize=auto;html=1;exitX=1;exitY=0.75;exitDx=0;exitDy=0;entryX=0.5;entryY=0;entryDx=0;entryDy=0;" edge="1" parent="1" source="MEQ9TWRvzjw0mrX6-UN0-6" target="MEQ9TWRvzjw0mrX6-UN0-55">
          <mxGeometry relative="1" as="geometry" />
        </mxCell>
        <mxCell id="MEQ9TWRvzjw0mrX6-UN0-6" value="PlanningModule" style="rounded=0;whiteSpace=wrap;html=1;" vertex="1" parent="1">
          <mxGeometry x="640" y="120" width="120" height="60" as="geometry" />
        </mxCell>
        <mxCell id="MEQ9TWRvzjw0mrX6-UN0-39" style="edgeStyle=orthogonalEdgeStyle;rounded=0;orthogonalLoop=1;jettySize=auto;html=1;exitX=0;exitY=0.5;exitDx=0;exitDy=0;entryX=1;entryY=0.5;entryDx=0;entryDy=0;" edge="1" parent="1" source="MEQ9TWRvzjw0mrX6-UN0-8" target="MEQ9TWRvzjw0mrX6-UN0-38">
          <mxGeometry relative="1" as="geometry" />
        </mxCell>
        <mxCell id="MEQ9TWRvzjw0mrX6-UN0-8" value="Result" style="ellipse;whiteSpace=wrap;html=1;" vertex="1" parent="1">
          <mxGeometry x="1250" y="620" width="120" height="80" as="geometry" />
        </mxCell>
        <mxCell id="MEQ9TWRvzjw0mrX6-UN0-57" style="edgeStyle=orthogonalEdgeStyle;rounded=0;orthogonalLoop=1;jettySize=auto;html=1;exitX=1;exitY=0.5;exitDx=0;exitDy=0;entryX=0.5;entryY=1;entryDx=0;entryDy=0;" edge="1" parent="1" source="MEQ9TWRvzjw0mrX6-UN0-26" target="MEQ9TWRvzjw0mrX6-UN0-38">
          <mxGeometry relative="1" as="geometry" />
        </mxCell>
        <mxCell id="MEQ9TWRvzjw0mrX6-UN0-26" value="Feedback Model Profile" style="ellipse;whiteSpace=wrap;html=1;" vertex="1" parent="1">
          <mxGeometry x="470" y="700" width="120" height="80" as="geometry" />
        </mxCell>
        <mxCell id="MEQ9TWRvzjw0mrX6-UN0-49" style="edgeStyle=orthogonalEdgeStyle;rounded=0;orthogonalLoop=1;jettySize=auto;html=1;exitX=1;exitY=0.5;exitDx=0;exitDy=0;entryX=0.5;entryY=0;entryDx=0;entryDy=0;" edge="1" parent="1" source="MEQ9TWRvzjw0mrX6-UN0-30" target="MEQ9TWRvzjw0mrX6-UN0-5">
          <mxGeometry relative="1" as="geometry" />
        </mxCell>
        <mxCell id="MEQ9TWRvzjw0mrX6-UN0-69" style="edgeStyle=orthogonalEdgeStyle;rounded=0;orthogonalLoop=1;jettySize=auto;html=1;exitX=0.5;exitY=1;exitDx=0;exitDy=0;entryX=0.5;entryY=0;entryDx=0;entryDy=0;" edge="1" parent="1" source="MEQ9TWRvzjw0mrX6-UN0-30" target="MEQ9TWRvzjw0mrX6-UN0-4">
          <mxGeometry relative="1" as="geometry" />
        </mxCell>
        <mxCell id="MEQ9TWRvzjw0mrX6-UN0-76" style="edgeStyle=orthogonalEdgeStyle;rounded=0;orthogonalLoop=1;jettySize=auto;html=1;exitX=0.5;exitY=1;exitDx=0;exitDy=0;entryX=0;entryY=0.25;entryDx=0;entryDy=0;" edge="1" parent="1" source="MEQ9TWRvzjw0mrX6-UN0-30" target="MEQ9TWRvzjw0mrX6-UN0-38">
          <mxGeometry relative="1" as="geometry" />
        </mxCell>
        <mxCell id="MEQ9TWRvzjw0mrX6-UN0-30" value="Next Step" style="ellipse;whiteSpace=wrap;html=1;" vertex="1" parent="1">
          <mxGeometry x="890" y="110" width="120" height="80" as="geometry" />
        </mxCell>
        <mxCell id="MEQ9TWRvzjw0mrX6-UN0-41" style="edgeStyle=orthogonalEdgeStyle;rounded=0;orthogonalLoop=1;jettySize=auto;html=1;exitX=0;exitY=0.5;exitDx=0;exitDy=0;entryX=1;entryY=0.5;entryDx=0;entryDy=0;" edge="1" parent="1" source="MEQ9TWRvzjw0mrX6-UN0-38" target="MEQ9TWRvzjw0mrX6-UN0-40">
          <mxGeometry relative="1" as="geometry" />
        </mxCell>
        <mxCell id="MEQ9TWRvzjw0mrX6-UN0-45" style="edgeStyle=orthogonalEdgeStyle;rounded=0;orthogonalLoop=1;jettySize=auto;html=1;exitX=0.5;exitY=0;exitDx=0;exitDy=0;entryX=0.5;entryY=1;entryDx=0;entryDy=0;" edge="1" parent="1" source="MEQ9TWRvzjw0mrX6-UN0-38" target="MEQ9TWRvzjw0mrX6-UN0-44">
          <mxGeometry relative="1" as="geometry" />
        </mxCell>
        <mxCell id="MEQ9TWRvzjw0mrX6-UN0-38" value="FeedbackModule" style="rounded=0;whiteSpace=wrap;html=1;" vertex="1" parent="1">
          <mxGeometry x="1000" y="630" width="120" height="60" as="geometry" />
        </mxCell>
        <mxCell id="MEQ9TWRvzjw0mrX6-UN0-64" style="edgeStyle=orthogonalEdgeStyle;rounded=0;orthogonalLoop=1;jettySize=auto;html=1;exitX=0.5;exitY=0;exitDx=0;exitDy=0;entryX=0.5;entryY=1;entryDx=0;entryDy=0;" edge="1" parent="1" source="MEQ9TWRvzjw0mrX6-UN0-40" target="MEQ9TWRvzjw0mrX6-UN0-62">
          <mxGeometry relative="1" as="geometry" />
        </mxCell>
        <mxCell id="MEQ9TWRvzjw0mrX6-UN0-40" value="Feedback" style="ellipse;whiteSpace=wrap;html=1;" vertex="1" parent="1">
          <mxGeometry x="740" y="620" width="120" height="80" as="geometry" />
        </mxCell>
        <mxCell id="MEQ9TWRvzjw0mrX6-UN0-46" style="edgeStyle=orthogonalEdgeStyle;rounded=0;orthogonalLoop=1;jettySize=auto;html=1;exitX=0.5;exitY=0;exitDx=0;exitDy=0;entryX=0.5;entryY=1;entryDx=0;entryDy=0;" edge="1" parent="1" source="MEQ9TWRvzjw0mrX6-UN0-44" target="MEQ9TWRvzjw0mrX6-UN0-4">
          <mxGeometry relative="1" as="geometry" />
        </mxCell>
        <mxCell id="MEQ9TWRvzjw0mrX6-UN0-44" value="New Memory" style="ellipse;whiteSpace=wrap;html=1;" vertex="1" parent="1">
          <mxGeometry x="1000" y="480" width="120" height="80" as="geometry" />
        </mxCell>
        <mxCell id="MEQ9TWRvzjw0mrX6-UN0-47" value="Responsible for generating and managing a high-level plan" style="text;html=1;strokeColor=none;fillColor=none;align=center;verticalAlign=middle;whiteSpace=wrap;rounded=0;" vertex="1" parent="1">
          <mxGeometry x="615" y="80" width="170" height="30" as="geometry" />
        </mxCell>
        <mxCell id="MEQ9TWRvzjw0mrX6-UN0-48" value="Responsible for making sure&lt;br&gt;we&#39;re on track" style="text;html=1;align=center;verticalAlign=middle;resizable=0;points=[];autosize=1;strokeColor=none;fillColor=none;" vertex="1" parent="1">
          <mxGeometry x="1070" y="690" width="180" height="40" as="geometry" />
        </mxCell>
        <mxCell id="MEQ9TWRvzjw0mrX6-UN0-53" style="edgeStyle=orthogonalEdgeStyle;rounded=0;orthogonalLoop=1;jettySize=auto;html=1;exitX=0.5;exitY=1;exitDx=0;exitDy=0;entryX=0.5;entryY=0;entryDx=0;entryDy=0;" edge="1" parent="1" source="MEQ9TWRvzjw0mrX6-UN0-50" target="MEQ9TWRvzjw0mrX6-UN0-52">
          <mxGeometry relative="1" as="geometry" />
        </mxCell>
        <mxCell id="MEQ9TWRvzjw0mrX6-UN0-80" style="edgeStyle=orthogonalEdgeStyle;rounded=0;orthogonalLoop=1;jettySize=auto;html=1;exitX=0;exitY=0.5;exitDx=0;exitDy=0;entryX=1;entryY=0.25;entryDx=0;entryDy=0;" edge="1" parent="1" source="MEQ9TWRvzjw0mrX6-UN0-50" target="MEQ9TWRvzjw0mrX6-UN0-38">
          <mxGeometry relative="1" as="geometry" />
        </mxCell>
        <mxCell id="MEQ9TWRvzjw0mrX6-UN0-50" value="Action (Python Code)" style="ellipse;whiteSpace=wrap;html=1;" vertex="1" parent="1">
          <mxGeometry x="1250" y="350" width="120" height="80" as="geometry" />
        </mxCell>
        <mxCell id="MEQ9TWRvzjw0mrX6-UN0-54" style="edgeStyle=orthogonalEdgeStyle;rounded=0;orthogonalLoop=1;jettySize=auto;html=1;exitX=0.5;exitY=1;exitDx=0;exitDy=0;entryX=0.5;entryY=0;entryDx=0;entryDy=0;" edge="1" parent="1" source="MEQ9TWRvzjw0mrX6-UN0-52" target="MEQ9TWRvzjw0mrX6-UN0-8">
          <mxGeometry relative="1" as="geometry" />
        </mxCell>
        <mxCell id="MEQ9TWRvzjw0mrX6-UN0-52" value="System" style="rounded=0;whiteSpace=wrap;html=1;" vertex="1" parent="1">
          <mxGeometry x="1250" y="500" width="120" height="60" as="geometry" />
        </mxCell>
        <mxCell id="MEQ9TWRvzjw0mrX6-UN0-75" style="edgeStyle=orthogonalEdgeStyle;rounded=0;orthogonalLoop=1;jettySize=auto;html=1;exitX=0;exitY=0;exitDx=0;exitDy=0;entryX=0.75;entryY=1;entryDx=0;entryDy=0;" edge="1" parent="1" source="MEQ9TWRvzjw0mrX6-UN0-55" target="MEQ9TWRvzjw0mrX6-UN0-6">
          <mxGeometry relative="1" as="geometry" />
        </mxCell>
        <mxCell id="MEQ9TWRvzjw0mrX6-UN0-77" style="edgeStyle=orthogonalEdgeStyle;rounded=0;orthogonalLoop=1;jettySize=auto;html=1;exitX=1;exitY=1;exitDx=0;exitDy=0;entryX=0;entryY=0.25;entryDx=0;entryDy=0;" edge="1" parent="1" source="MEQ9TWRvzjw0mrX6-UN0-55" target="MEQ9TWRvzjw0mrX6-UN0-38">
          <mxGeometry relative="1" as="geometry" />
        </mxCell>
        <mxCell id="MEQ9TWRvzjw0mrX6-UN0-55" value="Plan" style="ellipse;whiteSpace=wrap;html=1;" vertex="1" parent="1">
          <mxGeometry x="760" y="230" width="120" height="80" as="geometry" />
        </mxCell>
        <mxCell id="MEQ9TWRvzjw0mrX6-UN0-61" style="edgeStyle=orthogonalEdgeStyle;rounded=0;orthogonalLoop=1;jettySize=auto;html=1;exitX=1;exitY=0.5;exitDx=0;exitDy=0;entryX=0.75;entryY=0;entryDx=0;entryDy=0;" edge="1" parent="1" source="MEQ9TWRvzjw0mrX6-UN0-59" target="MEQ9TWRvzjw0mrX6-UN0-5">
          <mxGeometry relative="1" as="geometry" />
        </mxCell>
        <mxCell id="MEQ9TWRvzjw0mrX6-UN0-59" value="Action Model Profile" style="ellipse;whiteSpace=wrap;html=1;" vertex="1" parent="1">
          <mxGeometry x="400" y="10" width="120" height="80" as="geometry" />
        </mxCell>
        <mxCell id="MEQ9TWRvzjw0mrX6-UN0-65" style="edgeStyle=orthogonalEdgeStyle;rounded=0;orthogonalLoop=1;jettySize=auto;html=1;exitX=0.5;exitY=0;exitDx=0;exitDy=0;entryX=0.5;entryY=1;entryDx=0;entryDy=0;" edge="1" parent="1" source="MEQ9TWRvzjw0mrX6-UN0-62" target="MEQ9TWRvzjw0mrX6-UN0-6">
          <mxGeometry relative="1" as="geometry" />
        </mxCell>
        <mxCell id="MEQ9TWRvzjw0mrX6-UN0-74" style="edgeStyle=orthogonalEdgeStyle;rounded=0;orthogonalLoop=1;jettySize=auto;html=1;exitX=0;exitY=0;exitDx=0;exitDy=0;entryX=1;entryY=1;entryDx=0;entryDy=0;" edge="1" parent="1" source="MEQ9TWRvzjw0mrX6-UN0-62" target="MEQ9TWRvzjw0mrX6-UN0-66">
          <mxGeometry relative="1" as="geometry" />
        </mxCell>
        <mxCell id="MEQ9TWRvzjw0mrX6-UN0-62" value="Step complete? Objective complete? Need to revise?" style="ellipse;whiteSpace=wrap;html=1;" vertex="1" parent="1">
          <mxGeometry x="700" y="450" width="120" height="80" as="geometry" />
        </mxCell>
        <mxCell id="MEQ9TWRvzjw0mrX6-UN0-66" value="If done, exit" style="ellipse;whiteSpace=wrap;html=1;" vertex="1" parent="1">
          <mxGeometry x="590" y="340" width="120" height="80" as="geometry" />
        </mxCell>
        <mxCell id="MEQ9TWRvzjw0mrX6-UN0-72" style="edgeStyle=orthogonalEdgeStyle;rounded=0;orthogonalLoop=1;jettySize=auto;html=1;exitX=1;exitY=0.5;exitDx=0;exitDy=0;entryX=0.25;entryY=0;entryDx=0;entryDy=0;" edge="1" parent="1" source="MEQ9TWRvzjw0mrX6-UN0-70" target="MEQ9TWRvzjw0mrX6-UN0-5">
          <mxGeometry relative="1" as="geometry" />
        </mxCell>
        <mxCell id="MEQ9TWRvzjw0mrX6-UN0-70" value="Recent Memory" style="ellipse;whiteSpace=wrap;html=1;" vertex="1" parent="1">
          <mxGeometry x="1220" y="190" width="120" height="80" as="geometry" />
        </mxCell>
        <mxCell id="MEQ9TWRvzjw0mrX6-UN0-79" style="edgeStyle=orthogonalEdgeStyle;rounded=0;orthogonalLoop=1;jettySize=auto;html=1;exitX=1;exitY=0;exitDx=0;exitDy=0;entryX=0;entryY=0.5;entryDx=0;entryDy=0;" edge="1" parent="1" source="MEQ9TWRvzjw0mrX6-UN0-78" target="MEQ9TWRvzjw0mrX6-UN0-1">
          <mxGeometry relative="1" as="geometry" />
        </mxCell>
        <mxCell id="MEQ9TWRvzjw0mrX6-UN0-78" value="User&#39;s Objective" style="ellipse;whiteSpace=wrap;html=1;" vertex="1" parent="1">
          <mxGeometry x="20" y="260" width="120" height="80" as="geometry" />
        </mxCell>
      </root>
    </mxGraphModel>
  </diagram>
</mxfile>
